<svg width="415" height="359" viewBox="0 0 415 359" fill="none" xmlns="http://www.w3.org/2000/svg">
<g opacity="0.3">
<g filter="url(#filter0_d)">
<rect x="13" y="9" width="57" height="74" rx="2" fill="#FF6B00"/>
<g opacity="0.3">
<rect x="22" y="20" width="39" height="6" rx="2" fill="#343434"/>
<rect x="22" y="20" width="39" height="6" rx="2" fill="#343434"/>
</g>
<g opacity="0.3">
<rect x="44" y="67" width="17" height="6" rx="2" fill="#343434"/>
<rect x="44" y="67" width="17" height="6" rx="2" fill="#343434"/>
</g>
<g opacity="0.3">
<rect x="22" y="28" width="17" height="2" rx="1" fill="#343434"/>
<rect x="22" y="28" width="17" height="2" rx="1" fill="#343434"/>
</g>
</g>
<g filter="url(#filter1_d)">
<rect x="179" y="96" width="57" height="74" rx="2" fill="#FF2E00"/>
<g opacity="0.3">
<rect x="188" y="107" width="39" height="6" rx="2" fill="#343434"/>
<rect x="188" y="107" width="39" height="6" rx="2" fill="#343434"/>
</g>
<g opacity="0.3">
<rect x="210" y="154" width="17" height="6" rx="2" fill="#343434"/>
<rect x="210" y="154" width="17" height="6" rx="2" fill="#343434"/>
</g>
<g opacity="0.3">
<rect x="188" y="115" width="17" height="2" rx="1" fill="#343434"/>
<rect x="188" y="115" width="17" height="2" rx="1" fill="#343434"/>
</g>
</g>
<g filter="url(#filter2_d)">
<rect x="96" y="183" width="57" height="74" rx="2" fill="#FF006B"/>
<g opacity="0.3">
<rect x="105" y="194" width="39" height="6" rx="2" fill="#343434"/>
<rect x="105" y="194" width="39" height="6" rx="2" fill="#343434"/>
</g>
<g opacity="0.3">
<rect x="127" y="241" width="17" height="6" rx="2" fill="#343434"/>
<rect x="127" y="241" width="17" height="6" rx="2" fill="#343434"/>
</g>
<g opacity="0.3">
<rect x="105" y="202" width="17" height="2" rx="1" fill="#343434"/>
<rect x="105" y="202" width="17" height="2" rx="1" fill="#343434"/>
</g>
</g>
<g filter="url(#filter3_d)">
<rect x="262" y="270" width="57" height="74" rx="2" fill="#FF00B8"/>
<g opacity="0.3">
<rect x="271" y="281" width="39" height="6" rx="2" fill="#343434"/>
<rect x="271" y="281" width="39" height="6" rx="2" fill="#343434"/>
</g>
<g opacity="0.3">
<rect x="293" y="328" width="17" height="6" rx="2" fill="#343434"/>
<rect x="293" y="328" width="17" height="6" rx="2" fill="#343434"/>
</g>
<g opacity="0.3">
<rect x="271" y="289" width="17" height="2" rx="1" fill="#343434"/>
<rect x="271" y="289" width="17" height="2" rx="1" fill="#343434"/>
</g>
</g>
<g filter="url(#filter4_d)">
<rect x="262" y="9" width="57" height="74" rx="2" fill="#F8F600"/>
<g opacity="0.3">
<rect x="271" y="20" width="39" height="6" rx="2" fill="#343434"/>
<rect x="271" y="20" width="39" height="6" rx="2" fill="#343434"/>
</g>
<g opacity="0.3">
<rect x="282" y="47" width="17" height="6" rx="2" fill="#343434"/>
<rect x="282" y="47" width="17" height="6" rx="2" fill="#343434"/>
</g>
<g opacity="0.3">
<rect x="271" y="68" width="39" height="6" rx="2" fill="#343434"/>
<rect x="271" y="68" width="39" height="6" rx="2" fill="#343434"/>
</g>
<g opacity="0.3">
<rect x="271" y="28" width="37" height="2" rx="1" fill="#343434"/>
<rect x="271" y="28" width="37" height="2" rx="1" fill="#343434"/>
</g>
</g>
<g filter="url(#filter5_d)">
<rect x="345" y="96" width="57" height="74" rx="2" fill="#8B00F8"/>
<g opacity="0.3">
<rect x="354" y="107" width="39" height="6" rx="2" fill="#343434"/>
<rect x="354" y="107" width="39" height="6" rx="2" fill="#343434"/>
</g>
<g opacity="0.3">
<rect x="365" y="134" width="17" height="6" rx="2" fill="#343434"/>
<rect x="365" y="134" width="17" height="6" rx="2" fill="#343434"/>
</g>
<g opacity="0.3">
<rect x="354" y="155" width="39" height="6" rx="2" fill="#343434"/>
<rect x="354" y="155" width="39" height="6" rx="2" fill="#343434"/>
</g>
<g opacity="0.3">
<rect x="354" y="115" width="37" height="2" rx="1" fill="#343434"/>
<rect x="354" y="115" width="37" height="2" rx="1" fill="#343434"/>
</g>
</g>
<g filter="url(#filter6_d)">
<rect x="13" y="183" width="57" height="74" rx="2" fill="#F1B314"/>
<g opacity="0.3">
<rect x="22" y="194" width="39" height="6" rx="2" fill="#343434"/>
<rect x="22" y="194" width="39" height="6" rx="2" fill="#343434"/>
</g>
<g opacity="0.3">
<rect x="33" y="221" width="17" height="6" rx="2" fill="#343434"/>
<rect x="33" y="221" width="17" height="6" rx="2" fill="#343434"/>
</g>
<g opacity="0.3">
<rect x="22" y="242" width="39" height="6" rx="2" fill="#343434"/>
<rect x="22" y="242" width="39" height="6" rx="2" fill="#343434"/>
</g>
<g opacity="0.3">
<rect x="22" y="202" width="37" height="2" rx="1" fill="#343434"/>
<rect x="22" y="202" width="37" height="2" rx="1" fill="#343434"/>
</g>
</g>
<g filter="url(#filter7_d)">
<rect x="96" y="270" width="57" height="74" rx="2" fill="#86A8EC"/>
<g opacity="0.3">
<rect x="105" y="281" width="39" height="6" rx="2" fill="#343434"/>
<rect x="105" y="281" width="39" height="6" rx="2" fill="#343434"/>
</g>
<g opacity="0.3">
<rect x="116" y="308" width="17" height="6" rx="2" fill="#343434"/>
<rect x="116" y="308" width="17" height="6" rx="2" fill="#343434"/>
</g>
<g opacity="0.3">
<rect x="105" y="329" width="39" height="6" rx="2" fill="#343434"/>
<rect x="105" y="329" width="39" height="6" rx="2" fill="#343434"/>
</g>
<g opacity="0.3">
<rect x="105" y="289" width="37" height="2" rx="1" fill="#343434"/>
<rect x="105" y="289" width="37" height="2" rx="1" fill="#343434"/>
</g>
</g>
<g filter="url(#filter8_d)">
<rect x="345" y="9" width="57" height="74" rx="2" fill="#031C2D"/>
<rect x="345" y="9" width="57" height="55" rx="2" fill="#6A0082"/>
<rect x="345" y="9" width="57" height="70" rx="2" fill="#F8F600"/>
<rect x="345" y="9" width="57" height="44" rx="2" fill="#005C4C"/>
<rect x="345" y="9" width="57" height="35" rx="2" fill="#EC0008"/>
<rect x="345" y="9" width="57" height="24" rx="2" fill="#00F8E9"/>
<rect x="345" y="9" width="57" height="10" rx="2" fill="#0019F8"/>
<rect x="345" y="9" width="57" height="7" rx="2" fill="#FF6B00"/>
<g opacity="0.3">
<rect x="354" y="20" width="39" height="6" rx="2" fill="#343434"/>
<rect x="354" y="20" width="39" height="6" rx="2" fill="#343434"/>
</g>
<g opacity="0.3">
<rect x="376" y="67" width="17" height="6" rx="2" fill="#343434"/>
<rect x="376" y="67" width="17" height="6" rx="2" fill="#343434"/>
</g>
<g opacity="0.3">
<rect x="354" y="28" width="17" height="2" rx="1" fill="#343434"/>
<rect x="354" y="28" width="17" height="2" rx="1" fill="#343434"/>
</g>
<g opacity="0.3">
<rect x="354" y="20" width="39" height="6" rx="2" fill="#343434"/>
<rect x="354" y="20" width="39" height="6" rx="2" fill="#343434"/>
</g>
<g opacity="0.3">
<rect x="376" y="67" width="17" height="6" rx="2" fill="#343434"/>
<rect x="376" y="67" width="17" height="6" rx="2" fill="#343434"/>
</g>
<g opacity="0.3">
<rect x="354" y="28" width="17" height="2" rx="1" fill="#343434"/>
<rect x="354" y="28" width="17" height="2" rx="1" fill="#343434"/>
</g>
<g opacity="0.3">
<rect x="354" y="20" width="39" height="6" rx="2" fill="#343434"/>
<rect x="354" y="20" width="39" height="6" rx="2" fill="#343434"/>
</g>
<g opacity="0.3">
<rect x="376" y="67" width="17" height="6" rx="2" fill="#343434"/>
<rect x="376" y="67" width="17" height="6" rx="2" fill="#343434"/>
</g>
<g opacity="0.3">
<rect x="354" y="28" width="17" height="2" rx="1" fill="#343434"/>
<rect x="354" y="28" width="17" height="2" rx="1" fill="#343434"/>
</g>
</g>
<g filter="url(#filter9_d)">
<rect x="13" y="96" width="57" height="74" rx="2" fill="#031C2D"/>
<g opacity="0.3">
<rect x="22" y="107" width="39" height="6" rx="2" fill="#343434"/>
<rect x="22" y="107" width="39" height="6" rx="2" fill="#343434"/>
</g>
<g opacity="0.3">
<rect x="44" y="154" width="17" height="6" rx="2" fill="#343434"/>
<rect x="44" y="154" width="17" height="6" rx="2" fill="#343434"/>
</g>
<g opacity="0.3">
<rect x="22" y="115" width="17" height="2" rx="1" fill="#343434"/>
<rect x="22" y="115" width="17" height="2" rx="1" fill="#343434"/>
</g>
<g opacity="0.3">
<rect x="22" y="107" width="39" height="6" rx="2" fill="#343434"/>
<rect x="22" y="107" width="39" height="6" rx="2" fill="#343434"/>
</g>
<g opacity="0.3">
<rect x="44" y="154" width="17" height="6" rx="2" fill="#343434"/>
<rect x="44" y="154" width="17" height="6" rx="2" fill="#343434"/>
</g>
<g opacity="0.3">
<rect x="22" y="115" width="17" height="2" rx="1" fill="#343434"/>
<rect x="22" y="115" width="17" height="2" rx="1" fill="#343434"/>
</g>
<g opacity="0.3">
<rect x="22" y="107" width="39" height="6" rx="2" fill="#343434"/>
<rect x="22" y="107" width="39" height="6" rx="2" fill="#343434"/>
</g>
<g opacity="0.3">
<rect x="44" y="154" width="17" height="6" rx="2" fill="#343434"/>
<rect x="44" y="154" width="17" height="6" rx="2" fill="#343434"/>
</g>
<g opacity="0.3">
<rect x="22" y="115" width="17" height="2" rx="1" fill="#343434"/>
<rect x="22" y="115" width="17" height="2" rx="1" fill="#343434"/>
</g>
</g>
<g filter="url(#filter10_d)">
<rect x="13" y="96" width="57" height="74" rx="2" fill="black"/>
<rect x="19.5" y="104.5" width="44" height="57" rx="1.5" fill="black" stroke="white"/>
<g opacity="0.3">
<rect x="25" y="111" width="32" height="4.92308" rx="2" fill="#343434"/>
<rect x="25" y="111" width="32" height="4.92308" rx="2" fill="white"/>
</g>
<g opacity="0.3">
<rect x="43.0513" y="149.564" width="13.9487" height="4.92308" rx="2" fill="#343434"/>
<rect x="43.0513" y="149.564" width="13.9487" height="4.92308" rx="2" fill="white"/>
</g>
<g opacity="0.3">
<rect x="25" y="117.564" width="13.9487" height="1.64103" rx="0.820513" fill="#343434"/>
<rect x="25" y="117.564" width="13.9487" height="1.64103" rx="0.820513" fill="white"/>
</g>
</g>
<g filter="url(#filter11_d)">
<rect x="262" y="183" width="57" height="74" rx="2" fill="#032D16"/>
<rect x="262" y="183" width="57" height="55" rx="2" fill="#6A0082"/>
<rect x="262" y="183" width="57" height="70" rx="2" fill="#F8F600"/>
<rect x="262" y="183" width="57" height="44" rx="2" fill="#38A886"/>
<rect x="262" y="183" width="57" height="35" rx="2" fill="#609DBF"/>
<rect x="262" y="183" width="57" height="24" rx="2" fill="#6935BE"/>
<rect x="262" y="183" width="57" height="10" rx="2" fill="#F80095"/>
<rect x="262" y="183" width="57" height="7" rx="2" fill="#FF001F"/>
<g opacity="0.3">
<rect x="271" y="194" width="39" height="6" rx="2" fill="#343434"/>
<rect x="271" y="194" width="39" height="6" rx="2" fill="#343434"/>
</g>
<g opacity="0.3">
<rect x="293" y="241" width="17" height="6" rx="2" fill="#343434"/>
<rect x="293" y="241" width="17" height="6" rx="2" fill="#343434"/>
</g>
<g opacity="0.3">
<rect x="271" y="202" width="17" height="2" rx="1" fill="#343434"/>
<rect x="271" y="202" width="17" height="2" rx="1" fill="#343434"/>
</g>
<g opacity="0.3">
<rect x="271" y="194" width="39" height="6" rx="2" fill="#343434"/>
<rect x="271" y="194" width="39" height="6" rx="2" fill="#343434"/>
</g>
<g opacity="0.3">
<rect x="293" y="241" width="17" height="6" rx="2" fill="#343434"/>
<rect x="293" y="241" width="17" height="6" rx="2" fill="#343434"/>
</g>
<g opacity="0.3">
<rect x="271" y="202" width="17" height="2" rx="1" fill="#343434"/>
<rect x="271" y="202" width="17" height="2" rx="1" fill="#343434"/>
</g>
<g opacity="0.3">
<rect x="271" y="194" width="39" height="6" rx="2" fill="#343434"/>
<rect x="271" y="194" width="39" height="6" rx="2" fill="#343434"/>
</g>
<g opacity="0.3">
<rect x="293" y="241" width="17" height="6" rx="2" fill="#343434"/>
<rect x="293" y="241" width="17" height="6" rx="2" fill="#343434"/>
</g>
<g opacity="0.3">
<rect x="271" y="202" width="17" height="2" rx="1" fill="#343434"/>
<rect x="271" y="202" width="17" height="2" rx="1" fill="#343434"/>
</g>
</g>
<g filter="url(#filter12_d)">
<rect x="13" y="270" width="57" height="74" rx="2" fill="#BF9C68"/>
<g opacity="0.3">
<rect x="22" y="281" width="39" height="6" rx="2" fill="#343434"/>
<rect x="22" y="281" width="39" height="6" rx="2" fill="#343434"/>
</g>
<g opacity="0.3">
<rect x="44" y="328" width="17" height="6" rx="2" fill="#343434"/>
<rect x="44" y="328" width="17" height="6" rx="2" fill="#343434"/>
</g>
<g opacity="0.3">
<rect x="22" y="289" width="17" height="2" rx="1" fill="#343434"/>
<rect x="22" y="289" width="17" height="2" rx="1" fill="#343434"/>
</g>
<g opacity="0.3">
<rect x="22" y="281" width="39" height="6" rx="2" fill="#343434"/>
<rect x="22" y="281" width="39" height="6" rx="2" fill="#343434"/>
</g>
<g opacity="0.3">
<rect x="44" y="328" width="17" height="6" rx="2" fill="#343434"/>
<rect x="44" y="328" width="17" height="6" rx="2" fill="#343434"/>
</g>
<g opacity="0.3">
<rect x="22" y="289" width="17" height="2" rx="1" fill="#343434"/>
<rect x="22" y="289" width="17" height="2" rx="1" fill="#343434"/>
</g>
<g opacity="0.3">
<rect x="22" y="281" width="39" height="6" rx="2" fill="#343434"/>
<rect x="22" y="281" width="39" height="6" rx="2" fill="#343434"/>
</g>
<g opacity="0.3">
<rect x="44" y="328" width="17" height="6" rx="2" fill="#343434"/>
<rect x="44" y="328" width="17" height="6" rx="2" fill="#343434"/>
</g>
<g opacity="0.3">
<rect x="22" y="289" width="17" height="2" rx="1" fill="#343434"/>
<rect x="22" y="289" width="17" height="2" rx="1" fill="#343434"/>
</g>
</g>
<g filter="url(#filter13_d)">
<rect x="179" y="9" width="57" height="74" rx="2" fill="#D5EBF0"/>
<g opacity="0.3">
<rect x="188" y="21" width="39" height="6" rx="2" fill="#343434"/>
<rect x="188" y="21" width="39" height="6" rx="2" fill="#343434"/>
</g>
<g opacity="0.3">
<rect x="210" y="68" width="17" height="6" rx="2" fill="#343434"/>
<rect x="210" y="68" width="17" height="6" rx="2" fill="#343434"/>
</g>
<g opacity="0.3">
<rect x="188" y="29" width="17" height="2" rx="1" fill="#343434"/>
<rect x="188" y="29" width="17" height="2" rx="1" fill="#343434"/>
</g>
</g>
<g filter="url(#filter14_d)">
<rect x="96" y="96" width="57" height="74" rx="2" fill="#94E8C4"/>
<g opacity="0.3">
<rect x="105" y="108" width="39" height="6" rx="2" fill="#343434"/>
<rect x="105" y="108" width="39" height="6" rx="2" fill="#343434"/>
</g>
<g opacity="0.3">
<rect x="127" y="155" width="17" height="6" rx="2" fill="#343434"/>
<rect x="127" y="155" width="17" height="6" rx="2" fill="#343434"/>
</g>
<g opacity="0.3">
<rect x="105" y="116" width="17" height="2" rx="1" fill="#343434"/>
<rect x="105" y="116" width="17" height="2" rx="1" fill="#343434"/>
</g>
</g>
<g filter="url(#filter15_d)">
<rect x="345" y="183" width="57" height="74" rx="2" fill="#D5EBF0"/>
<g opacity="0.3">
<rect x="354" y="195" width="39" height="6" rx="2" fill="#343434"/>
<rect x="354" y="195" width="39" height="6" rx="2" fill="#343434"/>
</g>
<g opacity="0.3">
<rect x="376" y="242" width="17" height="6" rx="2" fill="#343434"/>
<rect x="376" y="242" width="17" height="6" rx="2" fill="#343434"/>
</g>
<g opacity="0.3">
<rect x="354" y="203" width="17" height="2" rx="1" fill="#343434"/>
<rect x="354" y="203" width="17" height="2" rx="1" fill="#343434"/>
</g>
</g>
<g filter="url(#filter16_d)">
<rect x="179" y="270" width="57" height="74" rx="2" fill="#D5EBF0"/>
<g opacity="0.3">
<rect x="188" y="282" width="39" height="6" rx="2" fill="#343434"/>
<rect x="188" y="282" width="39" height="6" rx="2" fill="#343434"/>
</g>
<g opacity="0.3">
<rect x="210" y="329" width="17" height="6" rx="2" fill="#343434"/>
<rect x="210" y="329" width="17" height="6" rx="2" fill="#343434"/>
</g>
<g opacity="0.3">
<rect x="188" y="290" width="17" height="2" rx="1" fill="#343434"/>
<rect x="188" y="290" width="17" height="2" rx="1" fill="#343434"/>
</g>
</g>
<g filter="url(#filter17_d)">
<rect x="96" y="9" width="57" height="74" rx="2" fill="#272F37"/>
<g opacity="0.3">
<rect x="105" y="20" width="39" height="6" rx="2" fill="#343434"/>
<rect x="105" y="20" width="39" height="6" rx="2" fill="#968D8D"/>
</g>
<g opacity="0.3">
<rect x="105" y="68" width="17" height="6" rx="2" fill="#343434"/>
<rect x="105" y="68" width="17" height="6" rx="2" fill="#968D8D"/>
</g>
<g opacity="0.3">
<rect x="116" y="29" width="17" height="2" rx="1" fill="#343434"/>
<rect x="116" y="29" width="17" height="2" rx="1" fill="#968D8D"/>
</g>
</g>
<g filter="url(#filter18_d)">
<rect x="262" y="96" width="57" height="74" rx="2" fill="#272F37"/>
<g opacity="0.3">
<rect x="271" y="107" width="39" height="6" rx="2" fill="#343434"/>
<rect x="271" y="107" width="39" height="6" rx="2" fill="#968D8D"/>
</g>
<g opacity="0.3">
<rect x="271" y="155" width="17" height="6" rx="2" fill="#343434"/>
<rect x="271" y="155" width="17" height="6" rx="2" fill="#968D8D"/>
</g>
<g opacity="0.3">
<rect x="282" y="116" width="17" height="2" rx="1" fill="#343434"/>
<rect x="282" y="116" width="17" height="2" rx="1" fill="#968D8D"/>
</g>
</g>
<g filter="url(#filter19_d)">
<rect x="179" y="183" width="57" height="74" rx="2" fill="#38A51D"/>
<g opacity="0.3">
<rect x="188" y="194" width="39" height="6" rx="2" fill="white"/>
<rect x="188" y="194" width="39" height="6" rx="2" fill="white"/>
</g>
<g opacity="0.3">
<rect x="188" y="242" width="17" height="6" rx="2" fill="white"/>
<rect x="188" y="242" width="17" height="6" rx="2" fill="white"/>
</g>
<g opacity="0.3">
<rect x="199" y="203" width="17" height="2" rx="1" fill="white"/>
<rect x="199" y="203" width="17" height="2" rx="1" fill="white"/>
</g>
</g>
<g filter="url(#filter20_d)">
<rect x="345" y="270" width="57" height="74" rx="2" fill="#272F37"/>
<g opacity="0.3">
<rect x="354" y="281" width="39" height="6" rx="2" fill="#343434"/>
<rect x="354" y="281" width="39" height="6" rx="2" fill="#968D8D"/>
</g>
<g opacity="0.3">
<rect x="354" y="329" width="17" height="6" rx="2" fill="#343434"/>
<rect x="354" y="329" width="17" height="6" rx="2" fill="#968D8D"/>
</g>
<g opacity="0.3">
<rect x="365" y="290" width="17" height="2" rx="1" fill="#343434"/>
<rect x="365" y="290" width="17" height="2" rx="1" fill="#968D8D"/>
</g>
</g>
</g>
<defs>
<filter id="filter0_d" x="4" y="4" width="77" height="94" filterUnits="userSpaceOnUse" color-interpolation-filters="sRGB">
<feFlood flood-opacity="0" result="BackgroundImageFix"/>
<feColorMatrix in="SourceAlpha" type="matrix" values="0 0 0 0 0 0 0 0 0 0 0 0 0 0 0 0 0 0 127 0"/>
<feOffset dx="1" dy="5"/>
<feGaussianBlur stdDeviation="5"/>
<feColorMatrix type="matrix" values="0 0 0 0 0 0 0 0 0 0 0 0 0 0 0 0 0 0 0.15 0"/>
<feBlend mode="normal" in2="BackgroundImageFix" result="effect1_dropShadow"/>
<feBlend mode="normal" in="SourceGraphic" in2="effect1_dropShadow" result="shape"/>
</filter>
<filter id="filter1_d" x="170" y="91" width="77" height="94" filterUnits="userSpaceOnUse" color-interpolation-filters="sRGB">
<feFlood flood-opacity="0" result="BackgroundImageFix"/>
<feColorMatrix in="SourceAlpha" type="matrix" values="0 0 0 0 0 0 0 0 0 0 0 0 0 0 0 0 0 0 127 0"/>
<feOffset dx="1" dy="5"/>
<feGaussianBlur stdDeviation="5"/>
<feColorMatrix type="matrix" values="0 0 0 0 0 0 0 0 0 0 0 0 0 0 0 0 0 0 0.15 0"/>
<feBlend mode="normal" in2="BackgroundImageFix" result="effect1_dropShadow"/>
<feBlend mode="normal" in="SourceGraphic" in2="effect1_dropShadow" result="shape"/>
</filter>
<filter id="filter2_d" x="87" y="178" width="77" height="94" filterUnits="userSpaceOnUse" color-interpolation-filters="sRGB">
<feFlood flood-opacity="0" result="BackgroundImageFix"/>
<feColorMatrix in="SourceAlpha" type="matrix" values="0 0 0 0 0 0 0 0 0 0 0 0 0 0 0 0 0 0 127 0"/>
<feOffset dx="1" dy="5"/>
<feGaussianBlur stdDeviation="5"/>
<feColorMatrix type="matrix" values="0 0 0 0 0 0 0 0 0 0 0 0 0 0 0 0 0 0 0.15 0"/>
<feBlend mode="normal" in2="BackgroundImageFix" result="effect1_dropShadow"/>
<feBlend mode="normal" in="SourceGraphic" in2="effect1_dropShadow" result="shape"/>
</filter>
<filter id="filter3_d" x="253" y="265" width="77" height="94" filterUnits="userSpaceOnUse" color-interpolation-filters="sRGB">
<feFlood flood-opacity="0" result="BackgroundImageFix"/>
<feColorMatrix in="SourceAlpha" type="matrix" values="0 0 0 0 0 0 0 0 0 0 0 0 0 0 0 0 0 0 127 0"/>
<feOffset dx="1" dy="5"/>
<feGaussianBlur stdDeviation="5"/>
<feColorMatrix type="matrix" values="0 0 0 0 0 0 0 0 0 0 0 0 0 0 0 0 0 0 0.15 0"/>
<feBlend mode="normal" in2="BackgroundImageFix" result="effect1_dropShadow"/>
<feBlend mode="normal" in="SourceGraphic" in2="effect1_dropShadow" result="shape"/>
</filter>
<filter id="filter4_d" x="253" y="4" width="77" height="94" filterUnits="userSpaceOnUse" color-interpolation-filters="sRGB">
<feFlood flood-opacity="0" result="BackgroundImageFix"/>
<feColorMatrix in="SourceAlpha" type="matrix" values="0 0 0 0 0 0 0 0 0 0 0 0 0 0 0 0 0 0 127 0"/>
<feOffset dx="1" dy="5"/>
<feGaussianBlur stdDeviation="5"/>
<feColorMatrix type="matrix" values="0 0 0 0 0 0 0 0 0 0 0 0 0 0 0 0 0 0 0.15 0"/>
<feBlend mode="normal" in2="BackgroundImageFix" result="effect1_dropShadow"/>
<feBlend mode="normal" in="SourceGraphic" in2="effect1_dropShadow" result="shape"/>
</filter>
<filter id="filter5_d" x="336" y="91" width="77" height="94" filterUnits="userSpaceOnUse" color-interpolation-filters="sRGB">
<feFlood flood-opacity="0" result="BackgroundImageFix"/>
<feColorMatrix in="SourceAlpha" type="matrix" values="0 0 0 0 0 0 0 0 0 0 0 0 0 0 0 0 0 0 127 0"/>
<feOffset dx="1" dy="5"/>
<feGaussianBlur stdDeviation="5"/>
<feColorMatrix type="matrix" values="0 0 0 0 0 0 0 0 0 0 0 0 0 0 0 0 0 0 0.15 0"/>
<feBlend mode="normal" in2="BackgroundImageFix" result="effect1_dropShadow"/>
<feBlend mode="normal" in="SourceGraphic" in2="effect1_dropShadow" result="shape"/>
</filter>
<filter id="filter6_d" x="4" y="178" width="77" height="94" filterUnits="userSpaceOnUse" color-interpolation-filters="sRGB">
<feFlood flood-opacity="0" result="BackgroundImageFix"/>
<feColorMatrix in="SourceAlpha" type="matrix" values="0 0 0 0 0 0 0 0 0 0 0 0 0 0 0 0 0 0 127 0"/>
<feOffset dx="1" dy="5"/>
<feGaussianBlur stdDeviation="5"/>
<feColorMatrix type="matrix" values="0 0 0 0 0 0 0 0 0 0 0 0 0 0 0 0 0 0 0.15 0"/>
<feBlend mode="normal" in2="BackgroundImageFix" result="effect1_dropShadow"/>
<feBlend mode="normal" in="SourceGraphic" in2="effect1_dropShadow" result="shape"/>
</filter>
<filter id="filter7_d" x="87" y="265" width="77" height="94" filterUnits="userSpaceOnUse" color-interpolation-filters="sRGB">
<feFlood flood-opacity="0" result="BackgroundImageFix"/>
<feColorMatrix in="SourceAlpha" type="matrix" values="0 0 0 0 0 0 0 0 0 0 0 0 0 0 0 0 0 0 127 0"/>
<feOffset dx="1" dy="5"/>
<feGaussianBlur stdDeviation="5"/>
<feColorMatrix type="matrix" values="0 0 0 0 0 0 0 0 0 0 0 0 0 0 0 0 0 0 0.15 0"/>
<feBlend mode="normal" in2="BackgroundImageFix" result="effect1_dropShadow"/>
<feBlend mode="normal" in="SourceGraphic" in2="effect1_dropShadow" result="shape"/>
</filter>
<filter id="filter8_d" x="336" y="4" width="77" height="94" filterUnits="userSpaceOnUse" color-interpolation-filters="sRGB">
<feFlood flood-opacity="0" result="BackgroundImageFix"/>
<feColorMatrix in="SourceAlpha" type="matrix" values="0 0 0 0 0 0 0 0 0 0 0 0 0 0 0 0 0 0 127 0"/>
<feOffset dx="1" dy="5"/>
<feGaussianBlur stdDeviation="5"/>
<feColorMatrix type="matrix" values="0 0 0 0 0 0 0 0 0 0 0 0 0 0 0 0 0 0 0.15 0"/>
<feBlend mode="normal" in2="BackgroundImageFix" result="effect1_dropShadow"/>
<feBlend mode="normal" in="SourceGraphic" in2="effect1_dropShadow" result="shape"/>
</filter>
<filter id="filter9_d" x="4" y="91" width="77" height="94" filterUnits="userSpaceOnUse" color-interpolation-filters="sRGB">
<feFlood flood-opacity="0" result="BackgroundImageFix"/>
<feColorMatrix in="SourceAlpha" type="matrix" values="0 0 0 0 0 0 0 0 0 0 0 0 0 0 0 0 0 0 127 0"/>
<feOffset dx="1" dy="5"/>
<feGaussianBlur stdDeviation="5"/>
<feColorMatrix type="matrix" values="0 0 0 0 0 0 0 0 0 0 0 0 0 0 0 0 0 0 0.15 0"/>
<feBlend mode="normal" in2="BackgroundImageFix" result="effect1_dropShadow"/>
<feBlend mode="normal" in="SourceGraphic" in2="effect1_dropShadow" result="shape"/>
</filter>
<filter id="filter10_d" x="4" y="91" width="77" height="94" filterUnits="userSpaceOnUse" color-interpolation-filters="sRGB">
<feFlood flood-opacity="0" result="BackgroundImageFix"/>
<feColorMatrix in="SourceAlpha" type="matrix" values="0 0 0 0 0 0 0 0 0 0 0 0 0 0 0 0 0 0 127 0"/>
<feOffset dx="1" dy="5"/>
<feGaussianBlur stdDeviation="5"/>
<feColorMatrix type="matrix" values="0 0 0 0 0 0 0 0 0 0 0 0 0 0 0 0 0 0 0.15 0"/>
<feBlend mode="normal" in2="BackgroundImageFix" result="effect1_dropShadow"/>
<feBlend mode="normal" in="SourceGraphic" in2="effect1_dropShadow" result="shape"/>
</filter>
<filter id="filter11_d" x="253" y="178" width="77" height="94" filterUnits="userSpaceOnUse" color-interpolation-filters="sRGB">
<feFlood flood-opacity="0" result="BackgroundImageFix"/>
<feColorMatrix in="SourceAlpha" type="matrix" values="0 0 0 0 0 0 0 0 0 0 0 0 0 0 0 0 0 0 127 0"/>
<feOffset dx="1" dy="5"/>
<feGaussianBlur stdDeviation="5"/>
<feColorMatrix type="matrix" values="0 0 0 0 0 0 0 0 0 0 0 0 0 0 0 0 0 0 0.15 0"/>
<feBlend mode="normal" in2="BackgroundImageFix" result="effect1_dropShadow"/>
<feBlend mode="normal" in="SourceGraphic" in2="effect1_dropShadow" result="shape"/>
</filter>
<filter id="filter12_d" x="4" y="265" width="77" height="94" filterUnits="userSpaceOnUse" color-interpolation-filters="sRGB">
<feFlood flood-opacity="0" result="BackgroundImageFix"/>
<feColorMatrix in="SourceAlpha" type="matrix" values="0 0 0 0 0 0 0 0 0 0 0 0 0 0 0 0 0 0 127 0"/>
<feOffset dx="1" dy="5"/>
<feGaussianBlur stdDeviation="5"/>
<feColorMatrix type="matrix" values="0 0 0 0 0 0 0 0 0 0 0 0 0 0 0 0 0 0 0.15 0"/>
<feBlend mode="normal" in2="BackgroundImageFix" result="effect1_dropShadow"/>
<feBlend mode="normal" in="SourceGraphic" in2="effect1_dropShadow" result="shape"/>
</filter>
<filter id="filter13_d" x="170" y="4" width="77" height="94" filterUnits="userSpaceOnUse" color-interpolation-filters="sRGB">
<feFlood flood-opacity="0" result="BackgroundImageFix"/>
<feColorMatrix in="SourceAlpha" type="matrix" values="0 0 0 0 0 0 0 0 0 0 0 0 0 0 0 0 0 0 127 0"/>
<feOffset dx="1" dy="5"/>
<feGaussianBlur stdDeviation="5"/>
<feColorMatrix type="matrix" values="0 0 0 0 0 0 0 0 0 0 0 0 0 0 0 0 0 0 0.15 0"/>
<feBlend mode="normal" in2="BackgroundImageFix" result="effect1_dropShadow"/>
<feBlend mode="normal" in="SourceGraphic" in2="effect1_dropShadow" result="shape"/>
</filter>
<filter id="filter14_d" x="87" y="91" width="77" height="94" filterUnits="userSpaceOnUse" color-interpolation-filters="sRGB">
<feFlood flood-opacity="0" result="BackgroundImageFix"/>
<feColorMatrix in="SourceAlpha" type="matrix" values="0 0 0 0 0 0 0 0 0 0 0 0 0 0 0 0 0 0 127 0"/>
<feOffset dx="1" dy="5"/>
<feGaussianBlur stdDeviation="5"/>
<feColorMatrix type="matrix" values="0 0 0 0 0 0 0 0 0 0 0 0 0 0 0 0 0 0 0.15 0"/>
<feBlend mode="normal" in2="BackgroundImageFix" result="effect1_dropShadow"/>
<feBlend mode="normal" in="SourceGraphic" in2="effect1_dropShadow" result="shape"/>
</filter>
<filter id="filter15_d" x="336" y="178" width="77" height="94" filterUnits="userSpaceOnUse" color-interpolation-filters="sRGB">
<feFlood flood-opacity="0" result="BackgroundImageFix"/>
<feColorMatrix in="SourceAlpha" type="matrix" values="0 0 0 0 0 0 0 0 0 0 0 0 0 0 0 0 0 0 127 0"/>
<feOffset dx="1" dy="5"/>
<feGaussianBlur stdDeviation="5"/>
<feColorMatrix type="matrix" values="0 0 0 0 0 0 0 0 0 0 0 0 0 0 0 0 0 0 0.15 0"/>
<feBlend mode="normal" in2="BackgroundImageFix" result="effect1_dropShadow"/>
<feBlend mode="normal" in="SourceGraphic" in2="effect1_dropShadow" result="shape"/>
</filter>
<filter id="filter16_d" x="170" y="265" width="77" height="94" filterUnits="userSpaceOnUse" color-interpolation-filters="sRGB">
<feFlood flood-opacity="0" result="BackgroundImageFix"/>
<feColorMatrix in="SourceAlpha" type="matrix" values="0 0 0 0 0 0 0 0 0 0 0 0 0 0 0 0 0 0 127 0"/>
<feOffset dx="1" dy="5"/>
<feGaussianBlur stdDeviation="5"/>
<feColorMatrix type="matrix" values="0 0 0 0 0 0 0 0 0 0 0 0 0 0 0 0 0 0 0.15 0"/>
<feBlend mode="normal" in2="BackgroundImageFix" result="effect1_dropShadow"/>
<feBlend mode="normal" in="SourceGraphic" in2="effect1_dropShadow" result="shape"/>
</filter>
<filter id="filter17_d" x="87" y="4" width="77" height="94" filterUnits="userSpaceOnUse" color-interpolation-filters="sRGB">
<feFlood flood-opacity="0" result="BackgroundImageFix"/>
<feColorMatrix in="SourceAlpha" type="matrix" values="0 0 0 0 0 0 0 0 0 0 0 0 0 0 0 0 0 0 127 0"/>
<feOffset dx="1" dy="5"/>
<feGaussianBlur stdDeviation="5"/>
<feColorMatrix type="matrix" values="0 0 0 0 0 0 0 0 0 0 0 0 0 0 0 0 0 0 0.15 0"/>
<feBlend mode="normal" in2="BackgroundImageFix" result="effect1_dropShadow"/>
<feBlend mode="normal" in="SourceGraphic" in2="effect1_dropShadow" result="shape"/>
</filter>
<filter id="filter18_d" x="253" y="91" width="77" height="94" filterUnits="userSpaceOnUse" color-interpolation-filters="sRGB">
<feFlood flood-opacity="0" result="BackgroundImageFix"/>
<feColorMatrix in="SourceAlpha" type="matrix" values="0 0 0 0 0 0 0 0 0 0 0 0 0 0 0 0 0 0 127 0"/>
<feOffset dx="1" dy="5"/>
<feGaussianBlur stdDeviation="5"/>
<feColorMatrix type="matrix" values="0 0 0 0 0 0 0 0 0 0 0 0 0 0 0 0 0 0 0.15 0"/>
<feBlend mode="normal" in2="BackgroundImageFix" result="effect1_dropShadow"/>
<feBlend mode="normal" in="SourceGraphic" in2="effect1_dropShadow" result="shape"/>
</filter>
<filter id="filter19_d" x="170" y="178" width="77" height="94" filterUnits="userSpaceOnUse" color-interpolation-filters="sRGB">
<feFlood flood-opacity="0" result="BackgroundImageFix"/>
<feColorMatrix in="SourceAlpha" type="matrix" values="0 0 0 0 0 0 0 0 0 0 0 0 0 0 0 0 0 0 127 0"/>
<feOffset dx="1" dy="5"/>
<feGaussianBlur stdDeviation="5"/>
<feColorMatrix type="matrix" values="0 0 0 0 0 0 0 0 0 0 0 0 0 0 0 0 0 0 0.15 0"/>
<feBlend mode="normal" in2="BackgroundImageFix" result="effect1_dropShadow"/>
<feBlend mode="normal" in="SourceGraphic" in2="effect1_dropShadow" result="shape"/>
</filter>
<filter id="filter20_d" x="336" y="265" width="77" height="94" filterUnits="userSpaceOnUse" color-interpolation-filters="sRGB">
<feFlood flood-opacity="0" result="BackgroundImageFix"/>
<feColorMatrix in="SourceAlpha" type="matrix" values="0 0 0 0 0 0 0 0 0 0 0 0 0 0 0 0 0 0 127 0"/>
<feOffset dx="1" dy="5"/>
<feGaussianBlur stdDeviation="5"/>
<feColorMatrix type="matrix" values="0 0 0 0 0 0 0 0 0 0 0 0 0 0 0 0 0 0 0.15 0"/>
<feBlend mode="normal" in2="BackgroundImageFix" result="effect1_dropShadow"/>
<feBlend mode="normal" in="SourceGraphic" in2="effect1_dropShadow" result="shape"/>
</filter>
</defs>
</svg>
